<svg version="1.1" xmlns="http://www.w3.org/2000/svg" xmlns:xlink="http://www.w3.org/1999/xlink" width="800px" height="800px" viewBox="0,0,256,256"><g fill="#ffffff" fill-rule="nonzero" stroke="none" stroke-width="1" stroke-linecap="butt" stroke-linejoin="miter" stroke-miterlimit="10" stroke-dasharray="" stroke-dashoffset="0" font-family="none" font-weight="none" font-size="none" text-anchor="none" style="mix-blend-mode: normal"><g transform="translate(0,-0.0007) scale(0.70051,0.70051)"><g><g><path d="M306.069,189.427h-298.569c-4.143,0 -7.5,-3.358 -7.5,-7.5c0,-4.142 3.357,-7.5 7.5,-7.5h297.119c0.469,-0.092 0.954,-0.14 1.45,-0.14c24.47,0 44.378,-19.908 44.378,-44.378c0,-24.47 -19.908,-44.379 -44.378,-44.379c-24.47,0 -44.378,19.908 -44.378,44.378c0,4.142 -3.357,7.5 -7.5,7.5c-4.143,0 -7.5,-3.358 -7.5,-7.5c0,-32.741 26.637,-59.378 59.378,-59.378c32.741,0 59.378,26.637 59.378,59.378c0,32.224 -25.801,58.535 -57.829,59.358c-0.5,0.106 -1.017,0.161 -1.549,0.161z"></path></g><g><path d="M152.283,137.479h-144.783c-4.143,0 -7.5,-3.358 -7.5,-7.5c0,-4.142 3.357,-7.5 7.5,-7.5h143.333c0.469,-0.092 0.954,-0.14 1.45,-0.14c24.47,0 44.378,-19.908 44.378,-44.378c0,-24.47 -19.908,-44.378 -44.378,-44.378c-24.471,0 -44.379,19.908 -44.379,44.378c0,4.142 -3.357,7.5 -7.5,7.5c-4.143,0 -7.5,-3.358 -7.5,-7.5c0,-32.741 26.638,-59.378 59.379,-59.378c32.741,0 59.378,26.637 59.378,59.378c0,32.224 -25.801,58.535 -57.829,59.358c-0.5,0.104 -1.018,0.16 -1.549,0.16z"></path></g><g><path d="M244.186,346.866c-32.741,0 -59.379,-26.637 -59.379,-59.378c0,-4.142 3.357,-7.5 7.5,-7.5c4.143,0 7.5,3.358 7.5,7.5c0,24.47 19.908,44.378 44.379,44.378c24.47,0 44.378,-19.908 44.378,-44.378c0,-24.47 -19.908,-44.378 -44.378,-44.378h-236.686c-4.143,0 -7.5,-3.358 -7.5,-7.5c0,-4.142 3.357,-7.5 7.5,-7.5h236.686c32.741,0 59.378,26.637 59.378,59.378c0,32.741 -26.637,59.378 -59.378,59.378z"></path></g></g></g></g></svg>